<svg width="128" height="128" viewBox="0 0 128 128" fill="none" xmlns="http://www.w3.org/2000/svg">
  <rect width="128" height="128" rx="28" fill="#0F172A"/>
  <path d="M64 20C43.013 20 26 36.789 26 57.52C26 84.46 64 108 64 108C64 108 102 84.46 102 57.52C102 36.789 84.987 20 64 20Z" fill="#14B8A6"/>
  <path d="M64 38C53.507 38 45 46.507 45 57C45 67.493 53.507 76 64 76C74.493 76 83 67.493 83 57C83 46.507 74.493 38 64 38Z" fill="#F8FAFC"/>
  <path d="M64 84C72 84 80.211 80.327 87 73.8C80.299 85.507 73.147 95.212 64 104C54.853 95.212 47.701 85.507 41 73.8C47.789 80.327 56 84 64 84Z" fill="#99F6E4"/>
</svg>